<svg width="521" height="114.17617156022044" viewBox="0 0 370 81.0848051387362" class="css-1j8o68f"><defs id="SvgjsDefs1549"></defs><g id="SvgjsG1550" featurekey="symbolFeature-0" transform="matrix(0.8671522736549377,0,0,0.8671522736549377,-8.357613294487601,-2.815643442854583)" fill="#011140"><g xmlns="http://www.w3.org/2000/svg"><g><polygon points="36.703,11.011 9.638,26.636 9.638,38.757 36.703,23.131 63.767,38.757 63.767,26.636   "></polygon></g><g><polygon points="63.298,89.092 36.233,73.467 36.233,61.348 63.298,76.973 90.362,61.348 90.362,73.467   "></polygon></g><g><polygon points="9.638,42.012 36.703,26.386 47.198,32.446 20.134,48.072 20.134,79.324 9.638,73.264   "></polygon></g><g><polygon points="77.083,18.872 50.018,3.247 39.522,9.307 66.586,24.932 66.586,56.184 77.083,50.124   "></polygon></g><g><polygon points="23.01,81.127 23.011,49.876 33.507,43.816 33.507,75.068 60.571,90.693 50.075,96.754   "></polygon></g><g><polygon points="90.362,58.092 90.362,26.84 79.866,20.78 79.866,52.031 52.802,67.658 63.298,73.719   "></polygon></g></g></g><g id="SvgjsG1551" featurekey="nameFeature-0" transform="matrix(1.4483758211135864,0,0,1.4483758211135864,85.82867750289101,2.6194916672974493)" fill="#0455bf"><path d="M2.88 12 l19.84 0 l0 6.44 l-6.72 0 l0 21.56 l-6.4 0 l0 -21.56 l-6.72 0 l0 -6.44 z M38.879999999999995 12 l7.8 28 l-6.4 0 l-1.12 -4.04 l-6.92 0 l-1.12 4.04 l-6.4 0 l7.8 -28 l6.36 0 z M34.04 29.439999999999998 l3.32 0 l-1.68 -5.96 z M66.68 12 l6.4 0 l-7.76 14 l7.76 14 l-6.4 0 l-4.6 -8.2 l-4.56 8.2 l-6.44 0 l7.8 -14 l-7.8 -14 l6.44 0 l4.56 8.24 z M85.24000000000001 12 l0 28 l-6.4 0 l0 -28 l6.4 0 z M112.32000000000001 22.8 l0 -10.8 l6.4 0 l0 28 l-6.4 0 l0 -10.8 l-7 0 l0 10.8 l-6.4 0 l0 -28 l6.4 0 l0 10.8 l7 0 z M142.08 18.44 l-11.2 0 l0 4.36 l8.04 0 l0 6.4 l-8.04 0 l0 4.4 l11.2 0 l0 6.4 l-17.6 0 l0 -28 l17.6 0 l0 6.44 z M163.44 12 l6.4 0 l-7.76 14 l7.76 14 l-6.4 0 l-4.6 -8.2 l-4.56 8.2 l-6.44 0 l7.8 -14 l-7.8 -14 l6.44 0 l4.56 8.24 z M188.39999999999998 12 l7.8 28 l-6.4 0 l-1.12 -4.04 l-6.92 0 l-1.12 4.04 l-6.4 0 l7.8 -28 l6.36 0 z M183.55999999999997 29.439999999999998 l3.32 0 l-1.68 -5.96 z"></path></g></svg>